<svg width="18" height="12" viewBox="0 0 18 12" fill="none" xmlns="http://www.w3.org/2000/svg">
<path d="M7.03825 12H0.41425V10.544L4.79825 5.216C5.20358 4.72533 5.40625 4.21867 5.40625 3.696C5.40625 3.17333 5.25692 2.75733 4.95825 2.448C4.67025 2.128 4.26492 1.968 3.74225 1.968C3.26225 1.968 2.86225 2.112 2.54225 2.4C2.22225 2.688 2.06225 3.13067 2.06225 3.728H0.43025C0.43025 2.768 0.739583 1.99467 1.35825 1.408C1.97692 0.810666 2.77158 0.511999 3.74225 0.511999C4.72358 0.511999 5.51825 0.805333 6.12625 1.392C6.73425 1.968 7.03825 2.74133 7.03825 3.712C7.03825 4.18133 6.95292 4.592 6.78225 4.944C6.62225 5.28533 6.35025 5.696 5.96625 6.176L2.39825 10.544H7.03825V12ZM17.5215 6.224C17.5215 7.568 17.4628 8.50133 17.3455 9.024C17.1748 9.81333 16.8495 10.448 16.3695 10.928C15.6548 11.6427 14.6735 12 13.4255 12H9.4255V0.608H13.4255C14.6735 0.608 15.6548 0.965333 16.3695 1.68C16.7322 2.04267 17.0042 2.48533 17.1855 3.008C17.3668 3.53067 17.4682 3.97867 17.4895 4.352C17.5108 4.71467 17.5215 5.24267 17.5215 5.936C17.5215 6.064 17.5215 6.16 17.5215 6.224ZM15.7935 6.224C15.7935 5.584 15.7828 5.104 15.7615 4.784C15.7508 4.45333 15.6975 4.112 15.6015 3.76C15.5162 3.408 15.3775 3.13067 15.1855 2.928C14.7162 2.416 14.0708 2.16 13.2495 2.16H11.1535V10.448H13.2495C14.0708 10.448 14.7162 10.192 15.1855 9.68C15.4522 9.38133 15.6175 8.976 15.6815 8.464C15.7562 7.94133 15.7935 7.19467 15.7935 6.224Z" fill="white"/>
</svg>
