<svg width="18" height="17" viewBox="0 0 18 17" fill="none" xmlns="http://www.w3.org/2000/svg">
<path d="M16.5 16.25H14C13.3097 16.25 12.75 15.6903 12.75 15V6.25C12.75 5.55969 13.3097 5 14 5H16.5C17.1903 5 17.75 5.55969 17.75 6.25V15C17.75 15.6903 17.1903 16.25 16.5 16.25ZM16.5 6.25H14V15H16.5V6.25ZM10.25 16.25H7.75C7.05969 16.25 6.5 15.6903 6.5 15V1.25C6.5 0.559687 7.05969 0 7.75 0H10.25C10.9403 0 11.5 0.559687 11.5 1.25V15C11.5 15.6903 10.9403 16.25 10.25 16.25ZM10.25 1.25H7.75V15H10.25V1.25ZM4 16.25H1.5C0.809687 16.25 0.25 15.6903 0.25 15V8.75C0.25 8.05969 0.809687 7.5 1.5 7.5H4C4.69031 7.5 5.25 8.05969 5.25 8.75V15C5.25 15.6903 4.69031 16.25 4 16.25ZM4 8.75H1.5V15H4V8.75Z" fill="white"/>
</svg>
